<?xml version="1.0" encoding="UTF-8"?>
<svg xmlns="http://www.w3.org/2000/svg" viewBox="0 0 71.12 100">
  <defs>
    <style>
      .cls-1 {
        fill: #fff;
        stroke-width: 0px;
      }
    </style>
  </defs>
  <path class="cls-1" d="m49.85,66.74c1.23,1.23,3.22,1.23,4.45,0h0c1.23-1.23,1.23-3.22,0-4.45l-16.73-17.25c-1.34-1.34-3.53-1.34-4.87,0l-16.78,17.25c-1.23,1.23-1.23,3.22,0,4.45h0c1.23,1.23,3.22,1.23,4.45,0l11.62-12.09v45.35s6.28,0,6.28,0v-45.34s11.58,12.08,11.58,12.08Z"/>
  <path class="cls-1" d="m69.56,29.05L42.07,1.56c-1-1-2.35-1.56-3.76-1.56H6.32C2.83,0,0,2.83,0,6.32v87.35c0,3.49,2.83,6.32,6.32,6.32h16.22v-6.29h-13.59c-1.47,0-2.66-1.19-2.66-2.66V8.95c0-1.47,1.19-2.66,2.66-2.66h25.27v24.39c0,3.43,2.78,6.22,6.21,6.22h24.38v6.5s0,47.65,0,47.65c0,1.47-1.19,2.66-2.66,2.66h-14.48v6.29h17.11c3.49,0,6.32-2.83,6.32-6.32v-60.86c0-1.41-.56-2.77-1.56-3.77Zm-26.82,1.56c-1.23,0-2.23-1-2.23-2.23V8.87l21.74,21.74h-19.51Z"/>
</svg>