<?xml version="1.0" encoding="UTF-8"?>
<svg xmlns="http://www.w3.org/2000/svg" viewBox="0 0 71.12 100">
  <defs>
    <style>
      .cls-1 {
        fill: #fff;
        stroke-width: 0px;
      }
    </style>
  </defs>
  <path class="cls-1" d="m70.2,77.3h0c-1.23-1.23-3.22-1.23-4.45,0l-11.62,12.09v-33.49c0-1.74-1.4-3.15-3.14-3.15s-3.15,1.41-3.15,3.15v33.48s-11.57-12.08-11.57-12.08c-1.23-1.23-3.22-1.23-4.45,0h0c-1.23,1.23-1.23,3.22,0,4.45l16.73,17.25c1.34,1.34,3.53,1.34,4.87,0l16.78-17.25c1.23-1.23,1.23-3.22,0-4.45Z"/>
  <path class="cls-1" d="m30.9,93.71H8.95c-1.47,0-2.66-1.19-2.66-2.66V8.95c0-1.47,1.19-2.66,2.66-2.66h25.26v24.39c0,3.43,2.78,6.22,6.22,6.22h24.38v15.93h6.3v-20.01c0-1.41-.56-2.77-1.56-3.77L42.07,1.56c-1-1-2.35-1.56-3.76-1.56H6.32C2.83,0,0,2.83,0,6.32v87.35c0,3.49,2.83,6.32,6.32,6.32h24.57v-6.29ZM40.51,8.87l21.74,21.74h-19.51c-1.23,0-2.23-1-2.23-2.23V8.87Z"/>
</svg>