<?xml version="1.0" encoding="UTF-8"?>
<svg xmlns="http://www.w3.org/2000/svg" viewBox="0 0 71.12 100">
  <defs>
    <style>
      .cls-1 {
        fill: #fff;
        stroke-width: 0px;
      }
    </style>
  </defs>
  <path class="cls-1" d="m71.12,32.82c0-1.41-.56-2.77-1.56-3.77L42.07,1.56c-1-1-2.35-1.56-3.76-1.56H6.32C2.83,0,0,2.83,0,6.32v87.35c0,3.49,2.83,6.32,6.32,6.32h58.47c3.49,0,6.32-2.83,6.32-6.32v-60.86Zm-30.61-23.95l21.74,21.74h-19.51c-1.23,0-2.23-1-2.23-2.23V8.87Zm21.66,84.84H8.95c-1.47,0-2.66-1.19-2.66-2.66V8.95c0-1.47,1.19-2.66,2.66-2.66h25.26v24.39c0,3.43,2.78,6.22,6.22,6.22h24.38v54.15c0,1.47-1.18,2.66-2.65,2.66Z"/>
  <path class="cls-1" d="m57.89,39.7c-1.87-1.03-4.22-.36-5.25,1.51l-21.26,38.35-13.05-19.75c-1.18-1.78-3.57-2.27-5.35-1.09-1.78,1.18-2.27,3.57-1.09,5.35l16.47,24.88c.6,1.01,1.63,1.75,2.89,1.89,1.7.19,3.25-.77,3.93-2.24l24.22-43.64c1.03-1.87.36-4.22-1.51-5.25Z"/>
</svg>