<?xml version="1.0" encoding="UTF-8"?>
<svg xmlns="http://www.w3.org/2000/svg" viewBox="0 0 71.12 100">
<defs>
	<style>
		.st1{fill:#FFFFFF;}
	</style>
</defs>
<path class="st1" d="M64.8,29.4H38.5c0.1,0,0.2-0.1,0.1-0.2L36.6,8.6c0-0.2-0.1-0.4,0.1-0.5c1.7-0.5,3-2.1,3-4
	c0-2.3-1.9-4.2-4.2-4.2s-4.2,1.9-4.2,4.2c0,1.9,1.2,3.4,3,4c0.2,0.1,0.1,0.3,0.1,0.5l-2.1,20.6c0,0.1,0.1,0.2,0.1,0.2H6.3
	c-3.5,0-6.3,2.8-6.3,6.3v38.8c0,3.5,2.8,6.3,6.3,6.3H32v10.9H11.4c-2.9,0-5.2,2.3-5.2,5.2v3.1H64v-3.1c0-2.9-2.3-5.2-5.2-5.2H38.2
	V80.8h26.5c3.5,0,6.3-2.8,6.3-6.3V35.7C71.1,32.2,68.3,29.4,64.8,29.4z M64.8,71.9c0,1.5-1.2,2.7-2.7,2.7H9c-1.5,0-2.7-1.2-2.7-2.7
	V38.3c0-1.5,1.2-2.7,2.7-2.7h53.2c1.5,0,2.7,1.2,2.7,2.7V71.9z"/>
<path class="st1" d="M52.4,40c-4.1,0-7.4,3.3-7.4,7.4c0,0.1,0,0.2,0,0.2c-6.2,2.3-12.4,2.3-18.6,0.1c0-0.1,0-0.2,0-0.3
	c0-4.1-3.3-7.4-7.4-7.4c-4.1,0-7.4,3.3-7.4,7.4s3.3,7.4,7.4,7.4c3.1,0,5.8-1.9,6.9-4.6c6.5,2.3,13.1,2.3,19.6-0.1
	c1.1,2.7,3.8,4.7,6.9,4.7c4.1,0,7.4-3.3,7.4-7.4S56.5,40,52.4,40z M19,52.1c-2.6,0-4.7-2.1-4.7-4.7s2.1-4.7,4.7-4.7
	s4.7,2.1,4.7,4.7S21.5,52.1,19,52.1z M52.4,52.1c-2.6,0-4.7-2.1-4.7-4.7s2.1-4.7,4.7-4.7s4.7,2.1,4.7,4.7S55,52.1,52.4,52.1z"/>
<path class="st1" d="M43,65.2h-9.2c-6.5,0-12.8-1.4-18.7-4.1c0,0-0.1-0.1-0.2-0.1c-0.4-0.1-0.8-0.1-1.2,0c-0.4,0.1-0.7,0.4-0.9,0.9
	c-0.4,0.9,0,1.9,0.9,2.3c0,0,0,0,0,0C20,67.3,26.8,69,33.8,69H43c1.1,0,1.9-0.8,1.9-1.9C44.9,66,44.1,65.2,43,65.2z"/>
</svg>
