<?xml version="1.0" encoding="UTF-8"?>
<svg xmlns="http://www.w3.org/2000/svg" viewBox="0 0 71.12 100">
  <defs>
    <style>
      .cls-1 {
        fill: #fff;
        stroke-width: 0px;
      }
    </style>
  </defs>
  <path class="cls-1" d="m15.92,22.7h0c1.23,1.23,3.22,1.23,4.45,0l11.62-12.09-.03,44.5c0,1.74,1.41,3.15,3.15,3.15s3.15-1.41,3.15-3.15l.02-44.49,11.57,12.08c1.23,1.23,3.22,1.23,4.45,0h0c1.23-1.23,1.23-3.22,0-4.45L37.56,1.01c-1.34-1.34-3.53-1.34-4.87,0L15.92,18.25c-1.23,1.23-1.23,3.22,0,4.45Z"/>
  <path class="cls-1" d="m64.79,29.38h-20.06v6.29h17.43c1.47,0,2.66,1.19,2.66,2.66v33.56c0,1.47-1.19,2.66-2.66,2.66H8.95c-1.47,0-2.66-1.19-2.66-2.66v-33.56c0-1.47,1.19-2.66,2.66-2.66h16.58v-6.29H6.32c-3.49,0-6.32,2.83-6.32,6.32v38.82c0,3.49,2.83,6.32,6.32,6.32h25.64v10.85H11.42c-2.86,0-5.17,2.31-5.17,5.17v3.14h57.7v-3.14c0-2.86-2.31-5.17-5.17-5.17h-20.53v-10.85s26.54,0,26.54,0c3.49,0,6.32-2.83,6.32-6.32v-38.82c0-3.49-2.83-6.32-6.32-6.32Z"/>
</svg>