<?xml version="1.0" encoding="utf-8"?>
<!-- Generator: Adobe Illustrator 28.0.0, SVG Export Plug-In . SVG Version: 6.00 Build 0)  -->
<svg version="1.1" id="Capa_1" xmlns="http://www.w3.org/2000/svg" xmlns:xlink="http://www.w3.org/1999/xlink" x="0px" y="0px"
	 viewBox="0 0 1258.44 305.76" style="enable-background:new 0 0 1258.44 305.76;" xml:space="preserve">
<style type="text/css">
	.st0{fill:#2A4B9B;}
	.st1{fill:#2B559A;}
	.st2{fill:#2B5E98;}
	.st3{fill:#2E6795;}
	.st4{fill:#327190;}
	.st5{fill:#377A8A;}
	.st6{fill:#3D8283;}
	.st7{fill:#448B79;}
	.st8{fill:#529B61;}
	.st9{fill:#5AA352;}
	.st10{fill:#61AB42;}
	.st11{fill:#69B42E;}
	.st12{fill:#4B936E;}
	.st13{fill:#1F396F;}
	.st14{fill:#23406D;}
	.st15{fill:#27486B;}
	.st16{fill:#2B4F68;}
	.st17{fill:#2F5664;}
	.st18{fill:#345D60;}
	.st19{fill:#39645A;}
	.st20{fill:#3F6B54;}
	.st21{fill:#45724C;}
	.st22{fill:#4B7944;}
	.st23{fill:#51803B;}
	.st24{fill:#578830;}
</style>
<path class="st0" d="M0,27.03v147.54l94.04-27.03V0L0,27.03z M74.29,138.15c-6.54,5.89-15.4,8.84-26.6,8.84
	c-4.67,0-9.36-0.5-14.09-1.49c-4.73-0.99-9.04-2.42-12.95-4.29c-3.91-1.87-7.03-4.11-9.36-6.74c-2.34-2.62-3.5-5.57-3.5-8.84v-18.72
	h3.15c1.98,11.79,5.86,20.24,11.64,25.38c5.78,5.13,13.62,7.7,23.54,7.7c3.96,0,7.7-0.67,11.2-2.01c3.5-1.34,6.33-3.35,8.49-6.04
	c2.16-2.68,3.24-5.95,3.24-9.8c0-5.13-1.61-9.51-4.81-13.12c-3.21-3.62-8.02-7.29-14.44-11.03L28.26,85.21
	c-7.47-4.43-12.75-8.92-15.84-13.48c-3.09-4.55-4.64-10.09-4.64-16.62c0-8.98,3.12-16.19,9.36-21.61
	c6.24-5.42,14.44-8.14,24.59-8.14c4.31,0,8.69,0.47,13.12,1.4c4.43,0.94,8.52,2.3,12.25,4.11c3.73,1.81,6.74,4,9.01,6.56
	c2.27,2.57,3.41,5.54,3.41,8.92v18.73h-3.15C74.4,53.3,70.61,44.9,65.01,39.88c-5.6-5.01-13.36-7.53-23.27-7.53
	c-3.39,0-6.65,0.73-9.8,2.19c-3.15,1.46-5.69,3.5-7.61,6.12c-1.92,2.62-2.89,5.75-2.89,9.36c0,5.02,1.63,9.16,4.9,12.42
	c3.26,3.27,8.11,6.77,14.52,10.5l21.52,12.77c7.46,4.44,12.95,8.72,16.45,12.86c3.5,4.14,5.25,9.48,5.25,16.01
	C84.09,124.41,80.82,132.26,74.29,138.15z"/>
<path class="st1" d="M97.63,38.9V185.5l93.45-26.86V12.04L97.63,38.9z M141.16,44.74c1.46-1.4,3.41-2.1,5.86-2.1
	c2.68,0,4.99,1.11,6.91,3.33c1.92,2.22,2.89,4.84,2.89,7.88c0,2.45-0.73,4.38-2.19,5.78c-1.46,1.4-3.41,2.1-5.86,2.1
	c-2.69,0-4.99-1.11-6.91-3.33c-1.92-2.21-2.89-4.84-2.89-7.88C138.97,48.07,139.7,46.14,141.16,44.74z M157.87,154.47h-15.75V93.22
	c0-5.25-0.73-9.48-2.19-12.69c-1.46-3.21-4.81-4.81-10.06-4.81h-3.5v-3.5h15.75c4.08,0,7.26,0.53,9.54,1.58
	c2.27,1.05,3.88,3.09,4.81,6.12c0.93,3.04,1.4,7.47,1.4,13.3V154.47z"/>
<g>
	<path class="st2" d="M238.98,101.67c4.78,0,8.9-1.49,12.34-4.46c3.44-2.97,5.16-8.19,5.16-15.66c0-7-1.69-12.1-5.07-15.31
		c-3.39-3.21-7.52-4.81-12.43-4.81c-4.79,0-8.9,1.49-12.34,4.46c-3.44,2.97-5.16,8.2-5.16,15.66c0,7.47,1.72,12.69,5.16,15.66
		C230.08,100.18,234.19,101.67,238.98,101.67z"/>
	<path class="st2" d="M240.73,127.05l-9.62-0.88c-4.44,1.75-8.02,4.26-10.76,7.53c-2.74,3.27-4.11,7.76-4.11,13.47
		c0,7,2.13,12.1,6.39,15.31c4.26,3.21,9.71,4.81,16.36,4.81c6.65,0,12.1-1.61,16.36-4.81c4.26-3.21,6.39-8.31,6.39-15.31
		c0-5.83-1.75-10.44-5.25-13.83C252.98,129.96,247.73,127.86,240.73,127.05z"/>
	<path class="st2" d="M195.26,50.76v145.68l92.85-26.69V24.07L195.26,50.76z M272.4,163.1c-3.39,3.96-7.99,6.83-13.83,8.58
		c-5.83,1.75-12.37,2.62-19.6,2.62c-7.23,0-13.77-0.88-19.6-2.62c-5.84-1.75-10.44-4.61-13.83-8.58c-3.39-3.97-5.08-9.27-5.08-15.92
		c0-3.85,0.88-7.26,2.62-10.24c1.75-2.98,4.08-5.51,7-7.61c2.92-2.1,6.12-3.73,9.62-4.9c-1.75-0.93-3.35-2.25-4.81-3.94
		c-1.46-1.69-2.19-3.88-2.19-6.56c0-2.68,0.7-4.72,2.1-6.12s2.74-2.56,4.02-3.5c-3.5-1.75-6.56-4.55-9.19-8.4
		c-2.62-3.85-3.94-8.63-3.94-14.35c0-6.76,1.49-12.04,4.46-15.84c2.97-3.79,7-6.47,12.07-8.05c5.08-1.58,10.65-2.36,16.71-2.36
		h32.38v4.38l-11.38,1.75c3.27,1.99,6.12,4.72,8.58,8.22s3.67,7.47,3.67,11.9c0,6.65-1.49,11.9-4.46,15.75s-6.97,6.56-11.99,8.14
		c-5.02,1.58-10.62,2.36-16.8,2.36c-6.07,0-10.65,0.53-13.74,1.58c-3.09,1.05-4.64,2.57-4.64,4.55c0,1.99,1.54,3.5,4.64,4.55
		c3.09,1.05,7.67,1.58,13.74,1.58c7,0,13.42,0.94,19.25,2.8c5.83,1.87,10.5,4.79,14,8.75c3.5,3.97,5.25,9.16,5.25,15.58
		C277.48,153.82,275.79,159.13,272.4,163.1z"/>
</g>
<path class="st3" d="M292.88,62.63v144.74l92.26-26.52V36.11L292.88,62.63z M379.99,171.74h-15.75v-52.5
	c0-5.83-0.93-10.47-2.8-13.91c-1.87-3.44-4.26-5.92-7.17-7.44c-2.92-1.52-6.01-2.28-9.28-2.28c-3.5,0-6.74,0.94-9.71,2.8
	c-2.98,1.87-5.57,4.03-7.79,6.48v66.85h-15.75v-61.25c0-5.25-0.73-9.48-2.19-12.69c-1.46-3.21-4.81-4.81-10.06-4.81h-3.5v-3.5h15.75
	c4.43,0,7.79,0.61,10.06,1.84c2.28,1.22,3.88,2.95,4.81,5.16c2.33-1.98,5.54-3.94,9.62-5.86c4.08-1.92,8.75-2.89,14-2.89
	c5.01,0,9.77,0.88,14.26,2.62c4.49,1.75,8.2,4.87,11.11,9.36c2.92,4.49,4.38,11,4.38,19.51V171.74z"/>
<g>
	<path class="st4" d="M430.71,145.56c-4.96,3.21-7.44,7.44-7.44,12.69c0,5.72,1.69,9.92,5.07,12.6c3.38,2.69,7.23,4.03,11.55,4.03
		c4.31,0,7.73-1.08,10.24-3.24c2.51-2.16,4.64-4.58,6.39-7.26v-23.62h-5.25C442.52,140.74,435.66,142.35,430.71,145.56z"/>
	<path class="st4" d="M390.51,74.49V218.3l91.67-26.35V48.14L390.51,74.49z M472.27,180.99h-8.75l-6.12-7.88h-0.88
		c-1.75,2.22-4.61,4.38-8.58,6.47c-3.97,2.1-9.28,3.15-15.92,3.15c-2.45,0-5.11-0.38-7.96-1.14c-2.86-0.76-5.63-2.07-8.31-3.94
		c-2.69-1.86-4.87-4.38-6.56-7.52c-1.69-3.15-2.54-7.12-2.54-11.9c0-6.42,2.07-11.38,6.21-14.88c4.14-3.5,9.62-5.98,16.45-7.44
		c6.83-1.46,14.14-2.19,21.96-2.19h5.25c0-8.17-0.82-14.38-2.45-18.64c-1.64-4.26-3.82-7.17-6.56-8.75
		c-2.74-1.58-5.86-2.36-9.36-2.36c-4.9,0-9.01,1.05-12.34,3.15c-3.33,2.1-5.63,6.01-6.91,11.72h-7.88c0-3.03,0.17-5.86,0.52-8.49
		c0.35-2.62,1.63-5.04,3.85-7.26c2.21-2.21,5.83-3.79,10.85-4.72c5.01-0.93,10.15-1.4,15.4-1.4c3.96,0,7.79,0.47,11.46,1.4
		c3.67,0.93,6.94,2.65,9.8,5.16c2.86,2.51,5.13,6.19,6.83,11.03c1.69,4.84,2.54,11.23,2.54,19.16V180.99z"/>
</g>
<path class="st5" d="M488.14,86.36v142.88l91.07-26.18V60.18L488.14,86.36z M555.13,199.89c-3.27,1.63-7.99,2.45-14.18,2.45
	c-6.18,0-11.23-1.81-15.14-5.42c-3.91-3.62-5.86-9.39-5.86-17.33v-54.25H507.7v-7h12.25v-15.75l8.75-10.5h7v26.25h21v7h-21v54.25
	c0,5.25,1.02,9.19,3.06,11.81c2.04,2.62,5.1,3.94,9.19,3.94c3.03,0,5.54-0.35,7.53-1.05c1.98-0.7,3.85-1.51,5.6-2.45l1.75,3.5
	C560.96,196.74,558.39,198.26,555.13,199.89z"/>
<path class="st6" d="M585.77,98.22v141.95l90.48-26.01V72.22L585.77,98.22z M671.51,206.17h-8.75l-6.12-7h-0.88
	c-2.22,2.22-5.25,4.23-9.1,6.04c-3.85,1.81-8.4,2.71-13.65,2.71c-4.9,0-9.62-0.88-14.17-2.62c-4.55-1.75-8.29-4.9-11.2-9.45
	c-2.92-4.55-4.38-11.02-4.38-19.42v-31.5c0-5.25-0.73-9.48-2.19-12.69c-1.46-3.21-4.81-4.81-10.06-4.81h-1.75v-3.5h14
	c4.08,0,7.26,0.53,9.54,1.58c2.28,1.05,3.88,3.09,4.81,6.12c0.93,3.04,1.4,7.47,1.4,13.3v31.5c0,5.83,0.93,10.47,2.8,13.91
	c1.87,3.44,4.29,5.92,7.26,7.44c2.97,1.52,6.04,2.28,9.19,2.28c2.33,0,4.55-0.44,6.65-1.31c2.1-0.88,4.08-2.01,5.95-3.41
	c1.87-1.4,3.5-2.92,4.9-4.55v-66.85h15.75V206.17z"/>
<path class="st7" d="M683.39,110.09V251.1l89.88-25.83V84.25L683.39,110.09z M758.18,146.84c-1.29-1.75-3.18-3.06-5.69-3.94
	c-2.51-0.88-5.28-1.31-8.31-1.31c-3.5,0-6.71,0.79-9.62,2.36c-2.92,1.58-5.25,3.71-7,6.39c0,0.58,0,1.43,0,2.54
	c0,1.11,0,2.01,0,2.71v59.5H711.8v-61.25c0-5.25-0.73-9.48-2.19-12.69c-1.46-3.21-4.81-4.81-10.06-4.81h-1.75v-3.5h14
	c4.43,0,7.79,0.64,10.06,1.92c2.27,1.29,3.88,3.27,4.81,5.95c1.98-1.98,4.87-4.08,8.66-6.3c3.79-2.21,8.2-3.33,13.21-3.33
	c1.75,0,3.61,0.21,5.6,0.61c1.98,0.41,3.62,1.08,4.9,2.01c1.28,0.94,2.39,2.04,3.33,3.33c0.93,1.29,1.86,2.8,2.8,4.55L758.18,146.84
	z"/>
<path class="st8" d="M878.65,133.82v139.15l88.69-25.49V108.32L878.65,133.82z M917.9,138.42c1.46-1.4,3.41-2.1,5.86-2.1
	c2.68,0,4.99,1.11,6.91,3.33c1.92,2.22,2.89,4.84,2.89,7.88c0,2.45-0.73,4.38-2.19,5.78c-1.46,1.4-3.41,2.1-5.86,2.1
	c-2.69,0-4.99-1.11-6.91-3.33c-1.92-2.21-2.89-4.84-2.89-7.88C915.71,141.75,916.44,139.82,917.9,138.42z M934.61,248.15h-15.75
	V186.9c0-5.25-0.73-9.48-2.19-12.69c-1.46-3.21-4.81-4.81-10.06-4.81h-3.5v-3.5h15.75c4.08,0,7.26,0.53,9.54,1.58
	c2.27,1.05,3.88,3.09,4.81,6.12c0.93,3.04,1.4,7.47,1.4,13.3V248.15z"/>
<path class="st9" d="M976.28,145.68V283.9l88.1-25.32V120.36L976.28,145.68z M1053.93,241.15v7h-68.25v-3.33l45.5-71.92h-20.12
	c-7.47,0-12.98,1.4-16.54,4.2c-3.56,2.8-5.34,6.65-5.34,11.55h-3.5v-8.75c0-2.33,0.41-4.58,1.22-6.74c0.81-2.16,2.3-3.91,4.46-5.25
	c2.16-1.34,5.22-2.01,9.19-2.01h53.38l-47.25,75.25H1053.93z"/>
<g>
	<path class="st10" d="M1113.86,183.1c-3.5,0-6.62,1.37-9.36,4.11c-2.74,2.74-4.93,6.48-6.56,11.2c-1.63,4.72-2.45,10.12-2.45,16.19
		h36.75c0-10.15-1.52-17.94-4.55-23.36C1124.65,185.81,1120.04,183.1,1113.86,183.1z"/>
	<path class="st10" d="M1073.9,157.55v137.28l87.51-25.15V132.39L1073.9,157.55z M1148.51,221.6h-53.03c0,9.57,2.07,17.5,6.21,23.8
		c4.14,6.3,9.94,9.45,17.41,9.45c5.71,0,10.47-1.22,14.26-3.67c3.79-2.45,7.2-5.89,10.24-10.33l3.5,2.62
		c-2.57,4.44-5.46,7.99-8.66,10.67c-3.21,2.69-6.71,4.64-10.5,5.86c-3.79,1.23-7.91,1.84-12.34,1.84c-8.17,0-14.96-1.92-20.39-5.78
		c-5.42-3.85-9.51-9.04-12.25-15.57c-2.74-6.53-4.11-13.71-4.11-21.53c0-7.93,1.4-15.14,4.2-21.61c2.8-6.48,6.83-11.64,12.08-15.49
		c5.25-3.85,11.49-5.78,18.72-5.78c7.93,0,14.5,1.49,19.69,4.46c5.19,2.97,9.04,7.32,11.55,13.04c2.51,5.72,3.76,12.72,3.76,21
		L1148.51,221.6z"/>
</g>
<path class="st11" d="M1171.53,169.41v136.35l86.91-24.98V144.43L1171.53,169.41z M1241.02,204.46c-1.29-1.75-3.18-3.06-5.69-3.94
	c-2.51-0.88-5.28-1.31-8.31-1.31c-3.5,0-6.71,0.79-9.62,2.36c-2.92,1.58-5.25,3.71-7,6.39c0,0.58,0,1.43,0,2.54
	c0,1.11,0,2.01,0,2.71v59.5h-15.75v-61.25c0-5.25-0.73-9.48-2.19-12.69c-1.46-3.21-4.81-4.81-10.06-4.81h-1.75v-3.5h14
	c4.43,0,7.79,0.64,10.06,1.92c2.27,1.29,3.88,3.27,4.81,5.95c1.98-1.98,4.87-4.08,8.66-6.3c3.79-2.21,8.2-3.33,13.21-3.33
	c1.75,0,3.61,0.21,5.6,0.61c1.98,0.41,3.62,1.08,4.9,2.01c1.28,0.94,2.39,2.04,3.33,3.33c0.93,1.29,1.86,2.8,2.8,4.55
	L1241.02,204.46z"/>
<g>
	<path class="st12" d="M817.71,184.85c-4.96,3.21-7.44,7.44-7.44,12.69c0,5.72,1.69,9.92,5.07,12.6c3.38,2.69,7.23,4.03,11.55,4.03
		c4.31,0,7.73-1.08,10.24-3.24c2.51-2.16,4.64-4.58,6.39-7.26v-23.62h-5.25C829.52,180.03,822.66,181.64,817.71,184.85z"/>
	<path class="st12" d="M781.02,121.95v140.08l89.29-25.66V96.29L781.02,121.95z M859.27,220.28h-8.75l-6.12-7.88h-0.88
		c-1.75,2.22-4.61,4.38-8.58,6.47c-3.97,2.1-9.28,3.15-15.92,3.15c-2.45,0-5.11-0.38-7.96-1.14c-2.86-0.76-5.63-2.07-8.31-3.94
		c-2.69-1.86-4.87-4.38-6.56-7.52c-1.69-3.15-2.54-7.12-2.54-11.9c0-6.42,2.07-11.38,6.21-14.88c4.14-3.5,9.62-5.98,16.45-7.44
		c6.83-1.46,14.14-2.19,21.96-2.19h5.25c0-8.17-0.82-14.38-2.45-18.64c-1.64-4.26-3.82-7.17-6.56-8.75
		c-2.74-1.58-5.86-2.36-9.36-2.36c-4.9,0-9.01,1.05-12.34,3.15c-3.33,2.1-5.63,6.01-6.91,11.72h-7.88c0-3.03,0.17-5.86,0.52-8.49
		c0.35-2.62,1.63-5.04,3.85-7.26c2.21-2.21,5.83-3.79,10.85-4.72c5.01-0.93,10.15-1.4,15.4-1.4c3.96,0,7.79,0.47,11.46,1.4
		c3.67,0.93,6.94,2.65,9.8,5.16c2.86,2.51,5.13,6.19,6.83,11.03c1.69,4.84,2.54,11.23,2.54,19.16V220.28z"/>
</g>
<g>
	<polygon class="st13" points="94.04,0 97.63,38.9 97.63,185.5 94.04,147.54 	"/>
	<polygon class="st14" points="191.08,12.04 195.26,50.76 195.26,196.44 191.08,158.64 	"/>
	<polygon class="st15" points="288.11,24.07 292.88,62.63 292.88,207.37 288.11,169.75 	"/>
	<polygon class="st16" points="385.14,36.11 390.51,74.49 390.51,218.3 385.14,180.85 	"/>
	<polygon class="st17" points="482.18,48.14 488.14,86.36 488.14,229.23 482.18,191.95 	"/>
	<polygon class="st18" points="579.21,60.18 585.77,98.22 585.77,240.17 579.21,203.06 	"/>
	<polygon class="st19" points="676.24,72.22 683.39,110.09 683.39,251.1 676.24,214.16 	"/>
	<polygon class="st20" points="773.28,84.25 781.02,121.95 781.02,262.03 773.28,225.26 	"/>
	<polygon class="st21" points="870.31,96.29 878.65,133.82 878.65,272.96 870.31,236.37 	"/>
	<polygon class="st22" points="967.34,108.32 976.28,145.68 976.28,283.9 967.34,247.47 	"/>
	<polygon class="st23" points="1064.38,120.36 1073.9,157.55 1073.9,294.83 1064.38,258.58 	"/>
	<polygon class="st24" points="1161.41,132.39 1171.53,169.41 1171.53,305.76 1161.41,269.68 	"/>
</g>
</svg>
